<svg width="50" height="50" viewBox="0 0 50 50" fill="none" xmlns="http://www.w3.org/2000/svg">
<circle cx="25" cy="25" r="25" fill="#FBB040"/>
<path d="M34.1 22.8728C34.1 30.3182 25 36.7 25 36.7C25 36.7 15.9 30.3182 15.9 22.8728C15.9 20.3339 16.8587 17.8991 18.5653 16.1038C20.2719 14.3086 22.5865 13.3 25 13.3C27.4135 13.3 29.7281 14.3086 31.4347 16.1038C33.1412 17.8991 34.1 20.3339 34.1 22.8728Z" stroke="white" stroke-width="2" stroke-linecap="round" stroke-linejoin="round"/>
<path d="M25 26.0833C26.7949 26.0833 28.25 24.6282 28.25 22.8333C28.25 21.0383 26.7949 19.5833 25 19.5833C23.2051 19.5833 21.75 21.0383 21.75 22.8333C21.75 24.6282 23.2051 26.0833 25 26.0833Z" stroke="white" stroke-width="2" stroke-linecap="round" stroke-linejoin="round"/>
</svg>
