<svg width="50" height="50" viewBox="0 0 50 50" fill="none" xmlns="http://www.w3.org/2000/svg">
<circle cx="25" cy="25" r="25" fill="#FBB040"/>
<path d="M28.3042 17.4166C29.3623 17.623 30.3348 18.1405 31.0971 18.9028C31.8594 19.6652 32.3769 20.6376 32.5833 21.6958M28.3042 13.0833C30.5025 13.3275 32.5526 14.3119 34.1176 15.875C35.6826 17.4381 36.6697 19.4868 36.9167 21.6849M35.8333 30.3299V33.5799C35.8346 33.8816 35.7728 34.1803 35.6519 34.4567C35.531 34.7332 35.3537 34.9813 35.1314 35.1853C34.9091 35.3892 34.6466 35.5445 34.3608 35.6412C34.075 35.7378 33.7722 35.7737 33.4717 35.7466C30.1381 35.3844 26.9359 34.2452 24.1225 32.4208C21.505 30.7575 19.2858 28.5383 17.6225 25.9208C15.7916 23.0946 14.6523 19.8768 14.2967 16.5283C14.2696 16.2287 14.3052 15.9267 14.4012 15.6417C14.4972 15.3566 14.6515 15.0947 14.8543 14.8725C15.0571 14.6504 15.304 14.4729 15.5791 14.3513C15.8543 14.2298 16.1517 14.1669 16.4525 14.1666H19.7025C20.2282 14.1614 20.7379 14.3476 21.1366 14.6904C21.5352 15.0332 21.7956 15.5093 21.8692 16.0299C22.0063 17.07 22.2607 18.0912 22.6275 19.0741C22.7733 19.4618 22.8048 19.8832 22.7184 20.2884C22.632 20.6935 22.4313 21.0654 22.14 21.3599L20.7642 22.7358C22.3064 25.4479 24.552 27.6936 27.2642 29.2358L28.64 27.8599C28.9345 27.5686 29.3064 27.3679 29.7115 27.2815C30.1167 27.1951 30.5381 27.2267 30.9258 27.3724C31.9087 27.7392 32.9299 27.9936 33.97 28.1308C34.4962 28.205 34.9769 28.4701 35.3204 28.8755C35.664 29.281 35.8465 29.7986 35.8333 30.3299Z" stroke="white" stroke-width="2" stroke-linecap="round" stroke-linejoin="round"/>
</svg>
