<svg width="82" height="82" viewBox="0 0 82 82" fill="none" xmlns="http://www.w3.org/2000/svg">
<circle cx="41" cy="41" r="41" fill="#FFEBCE"/>
<path d="M60.4062 19.9062H21.5938C20.6604 19.9062 19.9062 20.6604 19.9062 21.5938V60.4062C19.9062 61.3396 20.6604 62.0938 21.5938 62.0938H60.4062C61.3396 62.0938 62.0938 61.3396 62.0938 60.4062V21.5938C62.0938 20.6604 61.3396 19.9062 60.4062 19.9062ZM33.4062 53.2344C33.4062 53.4664 33.2164 53.6562 32.9844 53.6562H28.7656C28.5336 53.6562 28.3438 53.4664 28.3438 53.2344V28.7656C28.3438 28.5336 28.5336 28.3438 28.7656 28.3438H32.9844C33.2164 28.3438 33.4062 28.5336 33.4062 28.7656V53.2344ZM43.5312 38.4688C43.5312 38.7008 43.3414 38.8906 43.1094 38.8906H38.8906C38.6586 38.8906 38.4688 38.7008 38.4688 38.4688V28.7656C38.4688 28.5336 38.6586 28.3438 38.8906 28.3438H43.1094C43.3414 28.3438 43.5312 28.5336 43.5312 28.7656V38.4688ZM53.6562 42.2656C53.6562 42.4977 53.4664 42.6875 53.2344 42.6875H49.0156C48.7836 42.6875 48.5938 42.4977 48.5938 42.2656V28.7656C48.5938 28.5336 48.7836 28.3438 49.0156 28.3438H53.2344C53.4664 28.3438 53.6562 28.5336 53.6562 28.7656V42.2656Z" fill="#FBB040"/>
</svg>
