<svg width="98" height="18" viewBox="0 0 98 18" fill="none" xmlns="http://www.w3.org/2000/svg">
<path d="M7.95723 2.95982C8.25477 2.03475 9.56362 2.03475 9.86117 2.95982L10.6863 5.52512C10.8193 5.93858 11.2039 6.21893 11.6382 6.21893H14.3297C15.296 6.21893 15.7004 7.45337 14.9214 8.0251L12.7266 9.63599C12.3796 9.89062 12.2345 10.3387 12.3663 10.7484L13.2005 13.342C13.4974 14.2651 12.4386 15.0281 11.6569 14.4544L9.50088 12.872C9.14876 12.6136 8.66964 12.6136 8.31751 12.872L6.16152 14.4544C5.3798 15.0281 4.32096 14.2651 4.61786 13.342L5.4521 10.7484C5.58387 10.3387 5.43875 9.89062 5.09181 9.63599L2.89696 8.0251C2.11799 7.45337 2.52238 6.21893 3.48865 6.21893H6.18015C6.61447 6.21893 6.99913 5.93858 7.13211 5.52512L7.95723 2.95982Z" fill="#FBB040"/>
<path d="M28.0027 2.9597C28.3002 2.03462 29.6091 2.03463 29.9066 2.9597L30.7317 5.525C30.8647 5.93846 31.2494 6.2188 31.6837 6.2188H34.3752C35.3415 6.2188 35.7458 7.45325 34.9669 8.02497L32.772 9.63587C32.4251 9.8905 32.28 10.3385 32.4117 10.7482L33.246 13.3419C33.5429 14.265 32.484 15.028 31.7023 14.4542L29.5463 12.8719C29.1942 12.6134 28.7151 12.6134 28.363 12.8719L26.207 14.4542C25.4252 15.028 24.3664 14.265 24.6633 13.3419L25.4975 10.7482C25.6293 10.3385 25.4842 9.8905 25.1372 9.63587L22.9424 8.02498C22.1634 7.45325 22.5678 6.2188 23.5341 6.2188H26.2256C26.6599 6.2188 27.0446 5.93846 27.1776 5.525L28.0027 2.9597Z" fill="#FBB040"/>
<path d="M48.0498 2.9597C48.3474 2.03462 49.6562 2.03463 49.9538 2.9597L50.7789 5.525C50.9119 5.93846 51.2965 6.2188 51.7308 6.2188H54.4223C55.3886 6.2188 55.793 7.45325 55.014 8.02497L52.8192 9.63587C52.4722 9.8905 52.3271 10.3385 52.4589 10.7482L53.2931 13.3419C53.59 14.265 52.5312 15.028 51.7495 14.4542L49.5935 12.8719C49.2413 12.6134 48.7622 12.6134 48.4101 12.8719L46.2541 14.4542C45.4724 15.028 44.4135 14.265 44.7105 13.3419L45.5447 10.7482C45.6765 10.3385 45.5313 9.8905 45.1844 9.63587L42.9896 8.02498C42.2106 7.45325 42.615 6.2188 43.5812 6.2188H46.2727C46.7071 6.2188 47.0917 5.93846 47.2247 5.525L48.0498 2.9597Z" fill="#FBB040"/>
<path d="M68.0921 2.9597C68.3896 2.03462 69.6985 2.03463 69.996 2.9597L70.8211 5.525C70.9541 5.93846 71.3388 6.2188 71.7731 6.2188H74.4646C75.4309 6.2188 75.8353 7.45325 75.0563 8.02497L72.8614 9.63587C72.5145 9.8905 72.3694 10.3385 72.5012 10.7482L73.3354 13.3419C73.6323 14.265 72.5735 15.028 71.7917 14.4542L69.6357 12.8719C69.2836 12.6134 68.8045 12.6134 68.4524 12.8719L66.2964 14.4542C65.5147 15.028 64.4558 14.265 64.7527 13.3419L65.587 10.7482C65.7187 10.3385 65.5736 9.8905 65.2267 9.63587L63.0318 8.02498C62.2528 7.45325 62.6572 6.2188 63.6235 6.2188H66.315C66.7493 6.2188 67.134 5.93846 67.267 5.525L68.0921 2.9597Z" fill="#FBB040"/>
<path d="M88.1387 2.9597C88.4363 2.03462 89.7451 2.03463 90.0427 2.9597L90.8678 5.525C91.0008 5.93846 91.3854 6.2188 91.8198 6.2188H94.5113C95.4775 6.2188 95.8819 7.45325 95.1029 8.02497L92.9081 9.63587C92.5612 9.8905 92.416 10.3385 92.5478 10.7482L93.382 13.3419C93.679 14.265 92.6201 15.028 91.8384 14.4542L89.6824 12.8719C89.3303 12.6134 88.8512 12.6134 88.499 12.8719L86.343 14.4542C85.5613 15.028 84.5025 14.265 84.7994 13.3419L85.6336 10.7482C85.7654 10.3385 85.6203 9.8905 85.2733 9.63587L83.0785 8.02498C82.2995 7.45325 82.7039 6.2188 83.6702 6.2188H86.3617C86.796 6.2188 87.1806 5.93846 87.3136 5.525L88.1387 2.9597Z" fill="#FBB040"/>
</svg>
