<svg width="82" height="82" viewBox="0 0 82 82" fill="none" xmlns="http://www.w3.org/2000/svg">
<circle cx="41" cy="41" r="41" fill="#FFEBCE"/>
<path d="M20.732 40.0459C20.732 36.3739 21.65 32.9719 23.468 29.8579C25.286 26.7439 27.752 24.2779 30.866 22.4599C33.98 20.6419 37.364 19.7419 41.018 19.7419C43.754 19.7419 46.382 20.2819 48.884 21.3439C51.386 22.4059 53.528 23.8639 55.346 25.6639C57.164 27.4639 58.604 29.6239 59.666 32.1439C60.728 34.6639 61.268 37.2739 61.268 40.0459C61.268 42.7819 60.728 45.4099 59.666 47.9119C58.604 50.4139 57.146 52.5739 55.346 54.3739C53.546 56.1739 51.386 57.6139 48.884 58.6759C46.382 59.7379 43.772 60.2779 41.018 60.2779C38.264 60.2779 35.618 59.7379 33.116 58.6759C30.614 57.6139 28.454 56.1559 26.636 54.3559C24.818 52.5559 23.396 50.3959 22.316 47.9119C21.236 45.4279 20.732 42.7999 20.732 40.0459ZM25.196 40.0459C25.196 44.3119 26.744 48.0199 29.858 51.1699C32.972 54.2839 36.68 55.8319 41.018 55.8319C43.862 55.8319 46.508 55.1299 48.92 53.7079C51.332 52.2859 53.276 50.3779 54.698 47.9479C56.12 45.5179 56.84 42.8899 56.84 40.0459C56.84 37.2019 56.12 34.5559 54.698 32.1259C53.276 29.6959 51.35 27.7699 48.92 26.3479C46.49 24.9259 43.862 24.2239 41.018 24.2239C38.174 24.2239 35.528 24.9259 33.116 26.3479C30.704 27.7699 28.76 29.6959 27.32 32.1259C25.88 34.5559 25.196 37.2019 25.196 40.0459ZM35.402 47.6779C35.294 47.2819 35.33 46.8859 35.546 46.5079L39.452 39.5959V28.0579C39.452 27.6439 39.596 27.2839 39.884 26.9959C40.172 26.7079 40.532 26.5639 40.946 26.5639C41.36 26.5639 41.72 26.7079 42.008 26.9959C42.296 27.2839 42.44 27.6439 42.44 28.0579V40.0639C42.44 40.4239 42.332 40.7299 42.098 41.0179L38.174 48.0379C37.886 48.5239 37.436 48.7759 36.824 48.7759C36.536 48.7759 36.302 48.7219 36.104 48.6139C35.762 48.3799 35.528 48.0739 35.402 47.6779Z" fill="#FBB040"/>
</svg>
